<svg width="500" height="500" viewBox="0 0 500 500" fill="none" xmlns="http://www.w3.org/2000/svg">
<rect x="15" y="218" width="470" height="177" rx="45" fill="#8E98FF" stroke="#5865F2" stroke-width="30"/>
<path d="M64 211C64 177.863 90.8629 151 124 151H373C406.137 151 433 177.863 433 211V400C433 433.137 406.137 460 373 460H124C90.8629 460 64 433.137 64 400V211Z" fill="#5865F2"/>
<rect x="157.407" y="311.31" width="184.028" height="119.213" rx="40" fill="#8E98FF"/>
<circle cx="215.857" cy="370.917" r="20.2546" fill="#5865F2"/>
<circle cx="284.144" cy="370.917" r="20.2546" fill="#5865F2"/>
<path d="M315.972 300.894C315.972 286.192 331.518 274.273 350.694 274.273C369.871 274.273 385.417 286.192 385.417 300.894" stroke="#8E98FF" stroke-width="18" stroke-linecap="round"/>
<path d="M114.583 300.894C114.583 286.192 130.129 274.273 149.306 274.273C168.482 274.273 184.028 286.192 184.028 300.894" stroke="#8E98FF" stroke-width="18" stroke-linecap="round"/>
<path d="M249.5 36C256.684 36 267.511 41.012 277.89 58.3838C287.961 75.2413 295 100.149 295 129C295 157.851 287.961 182.759 277.89 199.616C267.511 216.988 256.684 222 249.5 222C242.316 222 231.489 216.988 221.11 199.616C211.039 182.759 204 157.851 204 129C204 100.149 211.039 75.2413 221.11 58.3838C231.489 41.012 242.316 36 249.5 36Z" fill="#3CD05E" stroke="#3AF065" stroke-width="50"/>
</svg>
