<svg width="500" height="500" viewBox="0 0 500 500" fill="none" xmlns="http://www.w3.org/2000/svg">
<path d="M95.5 211.5V343.5H83C55.1096 343.5 32.5 320.89 32.5 293V262C32.5 234.11 55.1096 211.5 83 211.5H95.5Z" fill="#5865F2" stroke="black" stroke-width="25"/>
<path d="M416 211.5C443.89 211.5 466.5 234.11 466.5 262V293C466.5 320.89 443.89 343.5 416 343.5H403.5V211.5H416Z" fill="#5865F2" stroke="black" stroke-width="25"/>
<path d="M349 131.5C389.041 131.5 421.5 163.959 421.5 204V351C421.5 391.041 389.041 423.5 349 423.5H150C109.959 423.5 77.5 391.041 77.5 351V204C77.5 163.959 109.959 131.5 150 131.5H349Z" fill="#5865F2" stroke="black" stroke-width="25"/>
<rect x="182.5" y="294.5" width="134" height="78" rx="27.5" fill="#8E98FF" stroke="black" stroke-width="25"/>
<circle cx="225.5" cy="333.5" r="15.5" fill="black"/>
<circle cx="273.5" cy="333.5" r="15.5" fill="black"/>
<path d="M307 271C307 258.297 320.431 248 337 248C353.569 248 367 258.297 367 271" stroke="black" stroke-width="25" stroke-linecap="round"/>
<path d="M133 271C133 258.297 146.431 248 163 248C179.569 248 193 258.297 193 271" stroke="black" stroke-width="25" stroke-linecap="round"/>
<path d="M249.5 34.5C260.019 34.5 271.75 41.7641 281.529 58.252C291.148 74.468 297.5 97.6845 297.5 124C297.5 150.315 291.148 173.532 281.529 189.748C271.75 206.236 260.019 213.5 249.5 213.5C238.981 213.5 227.25 206.236 217.471 189.748C207.852 173.532 201.5 150.315 201.5 124C201.5 97.6845 207.852 74.468 217.471 58.252C227.25 41.7641 238.981 34.5 249.5 34.5Z" fill="#3AF065" stroke="black" stroke-width="25"/>
</svg>
