<svg width="500" height="500" viewBox="0 0 500 500" fill="none" xmlns="http://www.w3.org/2000/svg">
<rect x="49" y="222" width="402" height="149" rx="45" fill="#8E98FF" stroke="#5865F2" stroke-width="30"/>
<path d="M90 223C90 189.863 116.863 163 150 163H349C382.137 163 409 189.863 409 223V370C409 403.137 382.137 430 349 430H150C116.863 430 90 403.137 90 370V223Z" fill="#5865F2"/>
<rect x="170" y="301" width="159" height="103" rx="40" fill="#8E98FF"/>
<circle cx="220.5" cy="352.5" r="17.5" fill="#5865F2"/>
<circle cx="279.5" cy="352.5" r="17.5" fill="#5865F2"/>
<path d="M307 292C307 279.297 320.431 269 337 269C353.569 269 367 279.297 367 292" stroke="#8E98FF" stroke-width="18" stroke-linecap="round"/>
<path d="M133 292C133 279.297 146.431 269 163 269C179.569 269 193 279.297 193 292" stroke="#8E98FF" stroke-width="18" stroke-linecap="round"/>
<path d="M249.5 66C253.832 66 262.167 69.1118 270.777 83.6289C279.066 97.6027 285 118.535 285 143C285 167.465 279.066 188.397 270.777 202.371C262.167 216.888 253.832 220 249.5 220C245.168 220 236.833 216.888 228.223 202.371C219.934 188.397 214 167.465 214 143C214 118.535 219.934 97.6027 228.223 83.6289C236.833 69.1118 245.168 66 249.5 66Z" fill="#3CD05E" stroke="#3AF065" stroke-width="50"/>
</svg>
